<svg width="430" height="324" viewBox="0 0 430 324" fill="none" xmlns="http://www.w3.org/2000/svg">
<g clip-path="url(#clip0_10_31)">
<path d="M107.95 216.492H106.424V234.808H107.95V216.492Z" fill="#F2F2F2"/>
<path d="M114.225 217.001H99.64C98.3314 217.001 97.2667 215.936 97.2667 214.627V209.199C97.2667 207.89 98.3314 206.826 99.64 206.826H114.225C115.533 206.826 116.598 207.89 116.598 209.199V214.627C116.598 215.936 115.533 217.001 114.225 217.001ZM105.068 207.843C101.321 207.843 98.2842 210.881 98.2842 214.627C98.2842 215.376 98.8913 215.983 99.6402 215.983H114.225C114.974 215.983 115.581 215.376 115.581 214.627V209.199C115.581 208.45 114.973 207.843 114.225 207.843H105.068Z" fill="#F2F2F2"/>
<path d="M194.833 260.674H193.307V278.99H194.833V260.674Z" fill="#F2F2F2"/>
<path d="M201.108 261.183H186.524C185.215 261.183 184.15 260.119 184.15 258.81V253.382C184.15 252.073 185.215 251.008 186.524 251.008H201.108C202.417 251.008 203.482 252.073 203.482 253.382V258.81C203.482 260.119 202.417 261.183 201.108 261.183ZM191.951 252.025C188.205 252.025 185.168 255.063 185.168 258.81C185.168 259.559 185.775 260.166 186.524 260.166H201.108C201.857 260.166 202.464 259.559 202.464 258.81V253.382C202.464 252.633 201.857 252.025 201.108 252.025H191.951Z" fill="#F2F2F2"/>
<path d="M352.314 316.348L346.439 316.348L343.645 293.687L352.315 293.687L352.314 316.348Z" fill="#FFB6B6"/>
<path d="M352.52 322.477L334.456 322.476V322.248C334.456 318.364 337.604 315.216 341.487 315.216L344.787 312.713L350.944 315.216L352.521 315.217L352.52 322.477Z" fill="#2F2E41"/>
<path d="M323.34 316.348L317.465 316.348L314.671 293.687L323.341 293.687L323.34 316.348Z" fill="#FFB6B6"/>
<path d="M323.547 322.477L305.482 322.476V322.248C305.482 318.364 308.63 315.216 312.513 315.216L315.813 312.713L321.97 315.216L323.547 315.217L323.547 322.477Z" fill="#2F2E41"/>
<path d="M326.444 188.123L366.283 186.312L370.267 209.493L367.732 217.462L365.559 226.517L359.04 258.391L353.607 305.478H342.078L341.837 260.746L344.542 257.051V254.587L342.694 221.989L330.609 253.501L331.696 257.848L328.436 265.816L324.522 305.478H313.743L311.414 251.328L320.106 218.005V211.848L321.555 208.95L326.444 188.123Z" fill="#2F2E41"/>
<path d="M352.702 113.69H338.179L336.404 121.658L322.279 128.178L327.35 165.123L324.452 177.076V181.785L323.004 186.131L322.279 199.999L371.897 203.517L368.637 196.273L369.724 191.926L368.637 189.391L365.74 168.021L367.913 126.729L356.686 122.745L352.702 113.69Z" fill="#3F3D56"/>
<path d="M277.709 182.321L288.11 173.669L293.881 178.922L282.559 187.678C282.477 188.107 282.332 188.532 282.117 188.939C280.952 191.152 278.214 192.002 276.001 190.836C273.788 189.671 272.939 186.932 274.104 184.719C274.847 183.307 276.23 182.454 277.709 182.321Z" fill="#FFB6B6"/>
<path d="M331.483 131.168L325.955 128.943C324.241 127.896 322.037 128.121 320.578 129.503C317.8 132.134 313.705 136.517 313.339 139.795C313.339 139.795 300.145 153.455 299.974 156.036C299.803 158.616 281.706 178.109 281.706 178.109L290.136 184.375L324.235 151.778L327.305 135.265C328.75 133.16 333.661 132.499 331.483 131.168Z" fill="#3F3D56"/>
<path d="M345.967 112.422C352.825 112.422 358.384 106.862 358.384 100.004C358.384 93.1463 352.825 87.5867 345.967 87.5867C339.11 87.5867 333.551 93.1463 333.551 100.004C333.551 106.862 339.11 112.422 345.967 112.422Z" fill="#FFB6B6"/>
<path d="M359.241 105.874C358.954 105.52 358.836 105.078 358.549 104.725C358.564 105.307 358.557 105.896 358.66 106.463C358.674 106.551 358.689 106.662 358.711 106.802C358.719 106.831 358.726 106.846 358.733 106.875C358.733 106.89 358.741 106.905 358.741 106.919C357.865 108.576 356.863 109.6 356.142 109.887C354.36 110.601 351.952 111.212 351.797 111.33C351.967 111.065 358.284 101.183 356.142 100.469C353.969 99.7471 354.154 101.095 354.154 101.095C353.164 97.0386 351.177 95.3697 348.175 96.1242C344.258 95.9843 340.422 94.7914 338.434 98.9077C338.205 97.9577 337.859 97.0299 337.454 96.1831C337.373 97.0888 337.373 98.0977 337.079 98.9813C334.295 101.409 332.628 100.995 331.571 99.4231C331.571 99.1065 331.579 98.7825 331.601 98.4658C331.623 98.2523 331.645 98.0535 331.682 97.8473C331.799 97.2509 332.263 96.9047 332.492 96.3819C331.984 96.6617 331.453 96.9268 330.997 97.2803C330.931 97.3318 330.835 97.3981 330.724 97.4791C330.437 95.6013 329.451 89.3054 332.602 91.4114C335.753 93.5175 334.053 89.2391 334.053 89.2391H337.83C337.83 89.2391 338.478 88.3849 339.626 87.4792C339.832 87.5381 340.024 87.597 340.215 87.6707C340.782 87.8916 338.956 85.8371 339.435 86.1537C339.251 85.6088 341.165 87.6117 340.9 87.0963C340.856 87.0079 340.989 85.572 340.907 85.4174C343.013 84.1435 353.116 84.1371 356.37 86.8901C360.463 90.3532 355.282 88.5862 360.486 95.3952C362.561 98.1106 362.42 100.661 359.241 105.874Z" fill="#2F2E41"/>
<path d="M256.276 324H47.8214C42.5659 324 38.2902 319.723 38.2902 314.467V86.1115C38.2902 80.8555 42.566 76.5793 47.8214 76.5793H256.276C261.531 76.5793 265.807 80.8555 265.807 86.1115V314.467C265.807 319.723 261.531 324 256.276 324ZM101.554 78.0521C67.4277 78.0521 39.7628 105.72 39.7628 139.849V314.467C39.7628 318.919 43.3709 322.527 47.8218 322.527H256.276C260.727 322.527 264.335 318.919 264.335 314.468V86.1115C264.335 81.6604 260.727 78.0521 256.276 78.0521L101.554 78.0521Z" fill="#F2F2F2"/>
<path d="M379.238 324H287.856C282.6 324 278.324 319.723 278.324 314.467V86.1115C278.324 80.8555 282.6 76.5793 287.856 76.5793H379.238C384.494 76.5793 388.77 80.8555 388.77 86.1115V314.467C388.77 319.723 384.494 324 379.238 324ZM287.856 78.0521C283.412 78.0521 279.797 81.6674 279.797 86.1115V314.467C279.797 318.912 283.412 322.527 287.856 322.527H379.238C383.682 322.527 387.297 318.912 387.297 314.467V86.1115C387.297 81.6674 383.682 78.0521 379.238 78.0521L287.856 78.0521Z" fill="#F2F2F2"/>
<path d="M420.362 0H9.64553C4.32936 0 0 4.3224 0 9.63907V147.2C0 152.296 3.98332 156.494 8.99758 156.818C9.21114 156.84 9.42469 156.847 9.64553 156.847H38.4496V155.374H9.64553C9.42469 155.374 9.21114 155.367 8.99759 155.345C4.79334 155.013 1.47261 151.486 1.47261 147.2V9.63907C1.4726 5.13248 5.13937 1.47274 9.64553 1.47274H420.362C424.868 1.47274 428.527 5.13248 428.527 9.63907V147.2C428.527 151.707 424.868 155.374 420.362 155.374H387.456V156.847H420.362C425.678 156.847 430 152.517 430 147.2V9.63907C430 4.32241 425.678 0 420.362 0Z" fill="#F2F2F2"/>
<path d="M142.694 232.236H126.797C126.797 232.052 126.811 231.868 126.841 231.669C127.253 228.547 130.905 223.945 133.1 222.988C133.519 222.811 133.887 222.759 134.167 222.885C134.528 223.039 134.749 223.488 134.749 224.291C134.749 226.184 135.942 227.148 137.407 227.862C137.046 228.422 136.582 228.871 135.971 229.018C137.186 229.276 139.056 229.608 140.514 229.247C141.589 229.806 142.436 230.506 142.642 231.67C142.679 231.846 142.694 232.038 142.694 232.236Z" fill="#B2A5FF"/>
<path d="M133.523 223.069C134.199 223.069 134.746 222.522 134.746 221.846C134.746 221.171 134.199 220.624 133.523 220.624C132.848 220.624 132.301 221.171 132.301 221.846C132.301 222.522 132.848 223.069 133.523 223.069Z" fill="#3F3D56"/>
<path d="M134.746 241.242C140.032 241.242 144.318 236.956 144.318 231.669H125.174C125.174 236.956 129.459 241.242 134.746 241.242Z" fill="#E6E6E6"/>
<path d="M182.454 261.691H166.557C166.557 261.507 166.572 261.323 166.601 261.124C166.785 259.725 167.625 258.032 168.685 256.5C169.193 256.566 169.649 256.743 169.996 257.097C169.834 256.647 169.642 256.11 169.392 255.55C170.548 254.077 171.858 252.877 172.86 252.443C173.279 252.266 173.648 252.214 173.927 252.34C174.288 252.494 174.509 252.943 174.509 253.746C174.509 258.415 181.74 257.413 182.402 261.124C182.439 261.301 182.454 261.493 182.454 261.691Z" fill="#B2A5FF"/>
<path d="M173.284 252.524C173.959 252.524 174.506 251.977 174.506 251.301C174.506 250.626 173.959 250.079 173.284 250.079C172.609 250.079 172.061 250.626 172.061 251.301C172.061 251.977 172.609 252.524 173.284 252.524Z" fill="#3F3D56"/>
<path d="M174.506 270.697C179.792 270.697 184.078 266.411 184.078 261.124H164.934C164.934 266.411 169.22 270.697 174.506 270.697Z" fill="#E6E6E6"/>
<path d="M172.843 222.286C168.882 222.286 165.67 225.498 165.67 229.46H180.017C180.017 225.498 176.805 222.286 172.843 222.286Z" fill="#B2A5FF"/>
<path d="M180.017 227.251H165.673C165.673 223.29 168.884 220.079 172.845 220.079C174.03 220.079 175.15 220.366 176.129 220.874C176.09 220.965 176.05 221.056 176.009 221.147C175.701 221.829 176.191 222.613 176.939 222.587C177.183 222.578 177.425 222.566 177.661 222.549L178.576 222.937C179.478 224.141 180.017 225.634 180.017 227.251Z" fill="#B2A5FF"/>
<path d="M173.033 237.56C178.32 237.56 182.605 233.274 182.605 227.988H163.461C163.461 233.274 167.747 237.56 173.033 237.56Z" fill="#E6E6E6"/>
<path d="M325.258 157.486C321.296 157.486 318.085 160.698 318.085 164.66H332.431C332.431 160.698 329.219 157.486 325.258 157.486Z" fill="#B2A5FF"/>
<path d="M332.431 162.451H318.088C318.088 158.489 321.298 155.278 325.259 155.278C326.445 155.278 327.564 155.565 328.543 156.074C328.504 156.164 328.465 156.255 328.424 156.346C328.115 157.028 328.606 157.812 329.353 157.786C329.598 157.778 329.839 157.765 330.076 157.748L330.991 158.136C331.893 159.34 332.431 160.833 332.431 162.451Z" fill="#B2A5FF"/>
<path d="M325.448 172.76C330.734 172.76 335.02 168.474 335.02 163.187H315.876C315.876 168.474 320.161 172.76 325.448 172.76Z" fill="#E6E6E6"/>
<path d="M103.238 140.672C108.306 140.672 112.415 136.65 112.415 131.688C112.415 126.726 108.306 122.703 103.238 122.703C98.17 122.703 94.0614 126.726 94.0614 131.688C94.0614 136.65 98.17 140.672 103.238 140.672Z" fill="#B2A5FF"/>
<path d="M176.804 128.614H127.409C125.715 128.614 124.336 127.235 124.336 125.541C124.336 123.846 125.715 122.467 127.409 122.467H176.804C178.499 122.467 179.877 123.846 179.877 125.541C179.877 127.235 178.499 128.614 176.804 128.614Z" fill="#F2F2F2"/>
<path d="M215.352 139.017H127.409C125.715 139.017 124.336 137.638 124.336 135.943C124.336 134.249 125.715 132.87 127.409 132.87H215.352C217.046 132.87 218.425 134.249 218.425 135.943C218.425 137.638 217.046 139.017 215.352 139.017Z" fill="#F2F2F2"/>
<path d="M176.804 161.751H127.409C125.715 161.751 124.336 160.372 124.336 158.677C124.336 156.982 125.715 155.604 127.409 155.604H176.804C178.499 155.604 179.877 156.982 179.877 158.677C179.877 160.372 178.499 161.751 176.804 161.751Z" fill="#F2F2F2"/>
<path d="M215.352 172.154H127.409C125.715 172.154 124.336 170.775 124.336 169.08C124.336 167.385 125.715 166.006 127.409 166.006H215.352C217.047 166.006 218.425 167.385 218.425 169.08C218.425 170.775 217.047 172.154 215.352 172.154Z" fill="#F2F2F2"/>
<path d="M100.293 47.1528C105.361 47.1528 109.47 43.1304 109.47 38.1686C109.47 33.2067 105.361 29.1843 100.293 29.1843C95.2248 29.1843 91.1162 33.2067 91.1162 38.1686C91.1162 43.1304 95.2248 47.1528 100.293 47.1528Z" fill="#B2A5FF"/>
<path d="M173.859 35.095H124.464C122.77 35.095 121.391 33.7161 121.391 32.0214C121.391 30.3267 122.77 28.9479 124.464 28.9479H173.859C175.553 28.9479 176.932 30.3267 176.932 32.0214C176.932 33.7161 175.553 35.095 173.859 35.095Z" fill="#F2F2F2"/>
<path d="M212.407 45.4978H124.464C122.77 45.4978 121.391 44.119 121.391 42.4243C121.391 40.7296 122.77 39.3507 124.464 39.3507H212.407C214.101 39.3507 215.48 40.7296 215.48 42.4243C215.48 44.119 214.101 45.4978 212.407 45.4978Z" fill="#F2F2F2"/>
<path d="M210.907 323.937L209.503 323.494L219.025 293.297C219.831 290.742 212.525 325.139 210.941 322.98C209.358 320.819 213.773 282.479 211.095 282.479H93.2558C90.7366 282.479 92.5103 320.286 90.9241 322.243C89.3377 324.2 84.5987 290.052 85.12 292.517L90.9081 319.882L89.4675 320.186L83.6794 292.822C83.0657 289.92 83.7845 286.935 85.6517 284.631C87.5189 282.328 90.2904 281.006 93.2558 281.006H211.095C214.247 281.006 217.124 282.465 218.989 285.007C220.853 287.55 221.378 290.733 220.43 293.74L210.907 323.937Z" fill="#F2F2F2"/>
<path d="M172.274 272.593L173.695 273.043L197.927 280.686C200.931 281.629 204.111 281.106 206.659 279.243C209.199 277.38 210.657 274.501 210.657 271.349L210.657 242.601C210.657 239.633 209.339 236.865 207.035 234.994C204.73 233.124 201.741 232.41 198.84 233.021L172.944 238.499L171.479 238.809L171.493 238.875L171.788 240.252L172.023 240.2L173.467 239.899L199.149 234.464C201.615 233.941 204.148 234.553 206.107 236.136C208.065 237.726 209.185 240.083 209.185 242.601L209.185 271.349C209.185 274.029 207.948 276.474 205.783 278.057C203.625 279.641 200.923 280.082 198.368 279.28L173.835 271.548L172.37 271.084L172.274 272.593Z" fill="#F2F2F2"/>
<path d="M135.65 241.359L134.229 240.91L109.997 233.266C106.993 232.324 103.813 232.847 101.265 234.71C98.7247 236.573 97.2668 239.452 97.2668 242.604L97.2667 271.351C97.2667 274.319 98.5847 277.088 100.889 278.958C103.194 280.829 106.183 281.543 109.084 280.932L134.98 275.453L136.445 275.144L136.431 275.078L136.136 273.7L135.9 273.752L134.457 274.054L108.775 279.488C106.308 280.011 103.776 279.4 101.817 277.817C99.8585 276.226 98.7393 273.87 98.7393 271.351L98.7394 242.604C98.7394 239.923 99.9764 237.478 102.141 235.895C104.298 234.312 107.001 233.87 109.556 234.673L134.089 242.405L135.554 242.869L135.65 241.359Z" fill="#F2F2F2"/>
<path d="M327.398 166.436L340.626 163.597L343.302 170.928L329.21 173.432C328.938 173.774 328.613 174.083 328.234 174.344C326.175 175.764 323.355 175.246 321.935 173.187C320.515 171.128 321.034 168.308 323.092 166.888C324.405 165.982 326.027 165.868 327.398 166.436Z" fill="#FFB6B6"/>
<path d="M367.317 127.229C370.465 126.502 373.66 128.275 374.688 131.338C376.301 136.141 377.997 143.133 376.243 147.737L374.794 159.69L372.983 166.21V167.144L334.231 172.729L332.42 163.312L357.41 159.328L358.134 154.981L358.81 154.305L359.739 149.367L362.523 132.343C362.936 129.824 364.829 127.803 367.317 127.229Z" fill="#3F3D56"/>
<path d="M134.556 256.896C130.594 256.896 127.383 260.108 127.383 264.07H141.729C141.729 260.108 138.517 256.896 134.556 256.896Z" fill="#B2A5FF"/>
<path d="M141.729 261.861H127.386C127.386 257.899 130.596 254.688 134.557 254.688C135.743 254.688 136.862 254.976 137.841 255.484C137.802 255.574 137.763 255.665 137.722 255.756C137.413 256.438 137.904 257.222 138.651 257.196C138.896 257.188 139.137 257.175 139.374 257.158L140.289 257.546C141.191 258.751 141.729 260.244 141.729 261.861Z" fill="#B2A5FF"/>
<path d="M134.746 272.17C140.032 272.17 144.318 267.884 144.318 262.597H125.174C125.174 267.884 129.459 272.17 134.746 272.17Z" fill="#E6E6E6"/>
<path d="M130.47 262.26C131.145 262.26 131.692 261.713 131.692 261.037C131.692 260.362 131.145 259.815 130.47 259.815C129.795 259.815 129.248 260.362 129.248 261.037C129.248 261.713 129.795 262.26 130.47 262.26Z" fill="#3F3D56"/>
<path d="M179.066 227.65C179.741 227.65 180.288 227.103 180.288 226.428C180.288 225.753 179.741 225.205 179.066 225.205C178.391 225.205 177.843 225.753 177.843 226.428C177.843 227.103 178.391 227.65 179.066 227.65Z" fill="#3F3D56"/>
<path d="M184.887 268.681H162.798V272.363H184.887V268.681Z" fill="#F2F2F2"/>
<path d="M145.863 270.89H123.774V274.572H145.863V270.89Z" fill="#F2F2F2"/>
<path d="M145.863 239.962H123.774V243.644H145.863V239.962Z" fill="#F2F2F2"/>
<path d="M184.887 237.017H162.798V240.699H184.887V237.017Z" fill="#F2F2F2"/>
<path d="M102.98 171.866C107.259 171.866 110.727 168.398 110.727 164.119C110.727 159.84 107.259 156.372 102.98 156.372C98.7022 156.372 95.234 159.84 95.234 164.119C95.234 168.398 98.7022 171.866 102.98 171.866Z" fill="white"/>
<path d="M102.98 172.396C98.4167 172.396 94.7041 168.683 94.7041 164.119C94.7041 159.555 98.4167 155.842 102.98 155.842C107.544 155.842 111.256 159.555 111.256 164.119C111.256 168.683 107.544 172.396 102.98 172.396ZM102.98 156.686C98.882 156.686 95.5477 160.02 95.5477 164.119C95.5477 168.218 98.882 171.552 102.98 171.552C107.079 171.552 110.413 168.218 110.413 164.119C110.413 160.02 107.079 156.686 102.98 156.686Z" fill="#3F3D56"/>
<path d="M101.924 168.151C101.653 168.151 101.397 168.024 101.234 167.806L99.121 164.988C98.8355 164.607 98.9126 164.067 99.2933 163.782C99.6741 163.496 100.214 163.573 100.5 163.954L101.882 165.798L105.433 160.471C105.697 160.074 106.233 159.968 106.628 160.232C107.024 160.495 107.131 161.031 106.867 161.427L102.641 167.767C102.486 168 102.227 168.143 101.948 168.151L101.924 168.151Z" fill="#B2A5FF"/>
<path d="M174.222 211.957C176.178 207.543 176.65 202.554 175.598 197.844C174.575 193.255 172.016 189.084 168.474 186.004C166.497 184.285 164.225 182.909 161.775 181.98C161.189 181.757 160.727 182.629 161.319 182.853C165.489 184.435 169.113 187.314 171.602 191.017C174.152 194.811 175.36 199.36 175.14 203.92C175.014 206.528 174.406 209.114 173.349 211.501C173.093 212.079 173.965 212.538 174.222 211.957Z" fill="#E6E6E6"/>
<path d="M164.642 179.045L156.194 178.657C155.887 178.642 155.63 179.014 155.742 179.297L159.16 187.963C159.392 188.549 160.334 188.258 160.1 187.667L156.682 179.001L156.229 179.642L164.678 180.03C165.312 180.059 165.272 179.074 164.642 179.045Z" fill="#E6E6E6"/>
<path d="M302.948 57.8123C302.035 53.0708 299.577 48.7051 296.026 45.4366C292.567 42.2525 288.086 40.2862 283.42 39.7786C280.816 39.4953 278.165 39.6614 275.623 40.2962C275.014 40.4482 275.132 41.4274 275.747 41.2738C280.074 40.1933 284.692 40.49 288.848 42.1103C293.108 43.7712 296.695 46.8178 299.116 50.6884C300.5 52.9019 301.477 55.3729 301.97 57.9366C302.09 58.5572 303.068 58.4366 302.948 57.8123Z" fill="#E6E6E6"/>
<path d="M276.303 36.2497L269.143 40.7517C268.883 40.9155 268.884 41.3671 269.137 41.5357L276.889 46.7019C277.414 47.0516 278.021 46.2752 277.492 45.9228L269.74 40.7566L269.734 41.5407L276.894 37.0387C277.431 36.7006 276.836 35.9144 276.303 36.2497Z" fill="#E6E6E6"/>
</g>
<defs>
<clipPath id="clip0_10_31">
<rect width="430" height="324" fill="white"/>
</clipPath>
</defs>
</svg>
