<svg width="713" height="590" viewBox="0 0 713 590" fill="none" xmlns="http://www.w3.org/2000/svg">
<g clip-path="url(#clip0_1_47)">
<path d="M280.931 439.577C400.4 503.114 516.677 518.09 540.642 473.028L569.257 419.221L136.622 189.134L108.006 242.941C84.0414 288.003 161.462 376.04 280.931 439.577Z" fill="url(#paint0_radial_1_47)"/>
<g filter="url(#filter0_ddd_1_47)">
<path d="M309.547 385.77C429.016 449.307 545.293 464.283 569.258 419.219C593.224 374.156 515.804 286.118 396.335 222.582C276.866 159.045 160.589 144.069 136.623 189.133C112.657 234.196 190.078 322.234 309.547 385.77Z" fill="url(#paint1_linear_1_47)"/>
</g>
<path opacity="0.5" d="M533.034 399.952C528.406 408.654 519.189 414.682 505.974 417.886C492.762 421.088 475.805 421.395 456.195 418.849C416.991 413.757 367.665 397.321 317.572 370.68C267.479 344.039 226.276 312.329 200.137 282.671C187.061 267.834 177.836 253.603 173.105 240.857C168.374 228.109 168.221 217.099 172.849 208.396C177.479 199.692 186.693 193.663 199.908 190.46C213.12 187.257 230.077 186.95 249.689 189.497C288.893 194.59 338.218 211.028 388.311 237.668C438.404 264.309 479.607 296.019 505.745 325.679C518.82 340.514 528.045 354.745 532.776 367.49C537.506 380.24 537.662 391.249 533.033 399.954L533.034 399.952Z" stroke="url(#paint2_linear_1_47)" stroke-width="2"/>
<g style="mix-blend-mode:soft-light">
<path fill-rule="evenodd" clip-rule="evenodd" d="M400.667 282.329C400.181 281.532 399.73 281.22 399.653 281.169C399.576 281.119 399.109 280.813 397.814 280.421C396.483 280.02 394.676 279.65 392.392 279.416C387.833 278.955 382.244 279.127 375.994 279.991C363.546 281.714 349.152 286.09 335.854 292.748C322.557 299.409 313.01 307.028 308.277 313.909C305.902 317.365 304.806 320.543 304.941 323.22C305.01 324.562 305.385 325.651 305.882 326.469C306.366 327.268 306.817 327.58 306.894 327.631C306.971 327.681 307.438 327.987 308.732 328.378C310.062 328.779 311.871 329.15 314.157 329.382C318.714 329.845 324.304 329.673 330.551 328.809C342.999 327.085 357.395 322.71 370.692 316.049C383.988 309.39 393.537 301.772 398.27 294.891C400.647 291.433 401.741 288.257 401.604 285.579C401.537 284.238 401.162 283.149 400.667 282.329ZM375.074 318.981C401.886 305.553 413.864 288.136 401.823 280.081C389.782 272.029 358.285 276.387 331.471 289.819C304.659 303.247 292.683 320.664 304.723 328.718C316.763 336.77 348.261 332.412 375.074 318.981Z" fill="white"/>
<path fill-rule="evenodd" clip-rule="evenodd" d="M456.803 347.475C457.653 347.358 457.636 347.115 457.63 347.075C457.626 347.032 457.575 346.773 456.599 345.911C455.598 345.027 453.904 343.767 451.327 342.1C446.184 338.777 438.5 334.468 428.659 329.437C409.056 319.414 381.944 307.07 352.024 294.836C322.106 282.601 295.342 272.915 276.288 267.13C266.723 264.226 259.363 262.384 254.555 261.639C252.147 261.266 250.611 261.205 249.741 261.323C248.891 261.44 248.907 261.683 248.913 261.724C248.918 261.766 248.969 262.025 249.946 262.886C250.946 263.771 252.642 265.032 255.218 266.696C260.363 270.02 268.044 274.33 277.885 279.361C297.489 289.382 324.6 301.728 354.52 313.962C384.438 326.197 411.203 335.881 430.256 341.668C439.821 344.572 447.179 346.413 451.988 347.159C454.396 347.532 455.933 347.593 456.803 347.475ZM354.831 316.37C415.162 341.039 463.372 355.678 462.512 349.067C461.65 342.456 412.044 317.098 351.713 292.428C291.382 267.759 243.173 253.118 244.033 259.729C244.894 266.342 294.499 291.7 354.831 316.37Z" fill="white"/>
<path fill-rule="evenodd" clip-rule="evenodd" d="M409.366 369.542C410.696 370.223 411.13 370.288 411.199 370.297C411.269 370.305 411.687 370.349 412.006 369.879C412.334 369.398 412.45 368.508 412.159 367.072C411.576 364.212 409.487 359.731 405.898 353.835C398.75 342.091 386.045 325.369 369.437 306.477C352.828 287.583 335.626 270.284 321.316 257.618C314.13 251.26 307.872 246.243 302.93 242.822C300.454 241.107 298.545 239.956 297.178 239.256C295.848 238.573 295.413 238.51 295.343 238.503C295.275 238.491 294.857 238.447 294.538 238.917C294.209 239.4 294.093 240.29 294.386 241.724C294.967 244.586 297.056 249.067 300.645 254.963C307.793 266.708 320.498 283.429 337.106 302.321C353.715 321.215 370.917 338.514 385.228 351.178C392.413 357.538 398.672 362.555 403.614 365.976C406.089 367.691 407.999 368.842 409.366 369.542ZM333.034 301.797C366.524 339.893 402.735 371.942 413.911 373.379C425.089 374.817 406.999 345.098 373.509 307.002C340.019 268.905 303.808 236.856 292.632 235.419C281.454 233.981 299.544 263.7 333.034 301.797Z" fill="white"/>
<path fill-rule="evenodd" clip-rule="evenodd" d="M304.201 255.675C308.011 258.22 309.568 261.051 307.682 261.998C305.794 262.942 301.179 261.642 297.372 259.096C293.562 256.551 292.005 253.72 293.891 252.773C295.778 251.829 300.394 253.129 304.201 255.675ZM425.476 323.107C429.287 325.655 430.846 328.487 428.958 329.433C427.074 330.376 422.455 329.077 418.646 326.53C414.835 323.981 413.276 321.15 415.165 320.204C417.05 319.258 421.668 320.56 425.476 323.107ZM311.061 309.291C314.871 311.839 316.43 314.671 314.545 315.616C312.661 316.56 308.042 315.26 304.234 312.711C300.424 310.163 298.864 307.333 300.749 306.388C302.634 305.443 307.252 306.744 311.061 309.291ZM358.696 301.232C365.147 305.548 367.785 310.343 364.592 311.94C361.399 313.542 353.581 311.339 347.131 307.027C340.682 302.712 338.041 297.918 341.235 296.319C344.429 294.72 352.246 296.919 358.696 301.232Z" fill="white"/>
</g>
</g>
<defs>
<filter id="filter0_ddd_1_47" x="99.271" y="117.123" width="507.34" height="348.105" filterUnits="userSpaceOnUse" color-interpolation-filters="sRGB">
<feFlood flood-opacity="0" result="BackgroundImageFix"/>
<feColorMatrix in="SourceAlpha" type="matrix" values="0 0 0 0 0 0 0 0 0 0 0 0 0 0 0 0 0 0 127 0" result="hardAlpha"/>
<feOffset dy="-13"/>
<feGaussianBlur stdDeviation="16.5"/>
<feColorMatrix type="matrix" values="0 0 0 0 0.404167 0 0 0 0 0.741154 0 0 0 0 1 0 0 0 0.4 0"/>
<feBlend mode="normal" in2="BackgroundImageFix" result="effect1_dropShadow_1_47"/>
<feColorMatrix in="SourceAlpha" type="matrix" values="0 0 0 0 0 0 0 0 0 0 0 0 0 0 0 0 0 0 127 0" result="hardAlpha"/>
<feOffset dy="1.858"/>
<feGaussianBlur stdDeviation="1.858"/>
<feColorMatrix type="matrix" values="0 0 0 0 1 0 0 0 0 1 0 0 0 0 1 0 0 0 0.25 0"/>
<feBlend mode="normal" in2="effect1_dropShadow_1_47" result="effect2_dropShadow_1_47"/>
<feColorMatrix in="SourceAlpha" type="matrix" values="0 0 0 0 0 0 0 0 0 0 0 0 0 0 0 0 0 0 127 0" result="hardAlpha"/>
<feOffset dy="-1.858"/>
<feGaussianBlur stdDeviation="0.674"/>
<feComposite in2="hardAlpha" operator="out"/>
<feColorMatrix type="matrix" values="0 0 0 0 0.925 0 0 0 0 0.936947 0 0 0 0 1 0 0 0 0.12 0"/>
<feBlend mode="normal" in2="effect2_dropShadow_1_47" result="effect3_dropShadow_1_47"/>
<feBlend mode="normal" in="SourceGraphic" in2="effect3_dropShadow_1_47" result="shape"/>
</filter>
<radialGradient id="paint0_radial_1_47" cx="0" cy="0" r="1" gradientUnits="userSpaceOnUse" gradientTransform="translate(328.366 372.994) rotate(98.2043) scale(167.432 280.084)">
<stop stop-color="#68E9F1"/>
<stop offset="0.604" stop-color="#86AFFF"/>
<stop offset="1" stop-color="#9492FF"/>
</radialGradient>
<linearGradient id="paint1_linear_1_47" x1="396.334" y1="222.584" x2="309.547" y2="385.77" gradientUnits="userSpaceOnUse">
<stop stop-color="#FD91FF"/>
<stop offset="0.344" stop-color="#A0A8FF"/>
<stop offset="0.947" stop-color="#C9F2FF"/>
</linearGradient>
<linearGradient id="paint2_linear_1_47" x1="207.313" y1="138.934" x2="536.082" y2="426.531" gradientUnits="userSpaceOnUse">
<stop stop-color="white"/>
<stop offset="1" stop-color="white" stop-opacity="0"/>
</linearGradient>
<clipPath id="clip0_1_47">
<rect width="634.393" height="347.034" fill="white" transform="translate(163.422 -15) rotate(28.0052)"/>
</clipPath>
</defs>
</svg>
